<svg>
  <path fill="#4087ed" fill-rule="evenodd" d="m16 7.6c0 .79-1.28 1.38-1.52 2.09s.44 2 0 2.59-1.84.35-2.46.8-.79 1.84-1.54 2.09-1.67-.8-2.47-.8-1.75 1-2.47.8-.92-1.64-1.54-2.09-2-.18-2.46-.8.23-1.84 0-2.59-1.54-1.3-1.54-2.09 1.28-1.38 1.52-2.09-.44-2 0-2.59 1.85-.35 2.48-.8.78-1.84 1.53-2.12 1.67.83 2.47.83 1.75-1 2.47-.8.91 1.64 1.53 2.09 2 .18 2.46.8-.23 1.84 0 2.59 1.54 1.3 1.54 2.09z"></path>
  <path d="M10.7,5.28a2.9,2.9,0,0,0-2.11.86.11.11,0,0,0,0,.16l1.05.94a.11.11,0,0,0,.15,0,1.27,1.27,0,0,1,.9-.33c.65,0,.65.73.65.73a.64.64,0,0,1-.65.65,1.73,1.73,0,0,1-1.18-.54c-.31-.26-.36-.32-.73-.66S7.06,5.28,5.65,5.28A2.26,2.26,0,0,0,3.37,7.56,2.59,2.59,0,0,0,3.82,9a2.18,2.18,0,0,0,1.83.89,2.94,2.94,0,0,0,2.1-.81.11.11,0,0,0,0-.16L6.74,8A.11.11,0,0,0,6.6,8a1.58,1.58,0,0,1-.94.29h0A.71.71,0,0,1,5,7.56H5a.63.63,0,0,1,.65-.64c.71,0,1.42.75,1.94,1.27.75.76,1.66,1.79,3.11,1.74A2.28,2.28,0,0,0,13,7.64a2.59,2.59,0,0,0-.45-1.47A2.14,2.14,0,0,0,10.7,5.28Z" fill="#fff"></path>
</svg>